<svg xmlns="http://www.w3.org/2000/svg" width="48" height="48" id="event"><circle cx="37.045" cy="28.409" r="12.5" fill="#50b748" fill-rule="evenodd" transform="matrix(1.92 0 0 1.92 -47.127 -30.545)"></circle><path fill="#d2dce9" d="M13 18h22c1.108 0 2 .892 2 2v14c0 1.108-.892 2-2 2H13c-1.108 0-2-.892-2-2V20c0-1.108.892-2 2-2z"></path><path fill="#0c5286" d="M13 13h22c1.108 0 2 .892 2 2v1c0 1.108-.892 2-2 2H13c-1.108 0-2-.892-2-2v-1c0-1.108.892-2 2-2z"></path><path fill="#d2dce9" style="isolation:auto;mix-blend-mode:normal" d="M29.006 1030.362v13h-26v-13z" color="#000" overflow="visible" transform="translate(8 -1012.362)"></path><path fill="#0c5286" d="M11 18v-3h26.01v3"></path><path fill="#d2dce9" d="M18 15.503A1.497 1.497 0 0 1 16.503 17a1.497 1.497 0 0 1-1.498-1.497 1.497 1.497 0 0 1 1.498-1.497A1.497 1.497 0 0 1 18 15.503zm15 0A1.497 1.497 0 0 1 31.503 17a1.497 1.497 0 0 1-1.498-1.497 1.497 1.497 0 0 1 1.498-1.497A1.497 1.497 0 0 1 33 15.503z"></path><path fill="#8fb6d7" fill-rule="evenodd" d="M8.496 1023.348a.5.5 0 0 0-.494.508v4a.5.5 0 1 0 1 0v-4a.5.5 0 0 0-.506-.508zm15 0a.5.5 0 0 0-.494.508v4a.5.5 0 1 0 1 0v-4a.5.5 0 0 0-.506-.508z" color="#000" font-family="sans-serif" font-weight="400" overflow="visible" style="line-height:normal;text-indent:0;text-align:start;text-decoration-line:none;text-decoration-style:solid;text-decoration-color:#000;text-transform:none;block-progression:tb;isolation:auto;mix-blend-mode:normal" transform="translate(8 -1012.362)"></path><path fill="#ee7581" d="M13.005 32h2v2h-2zm4 0h2v2h-2zm-4-4h2v2h-2zm4 0h2v2h-2zm8 0h2v2h-2zm4 0h2v2h-2zm4 0h2v2h-2zm-20-4h2v2h-2zm4 0h2v2h-2zm4 0h2v2h-2zm4 0h2v2h-2zm8 0h2v2h-2zm-12-4h2v2h-2zm4 0h2v2h-2zm4 0h2v2h-2zm4 0h2v2h-2z"></path><path fill="#2dbca4" fill-rule="evenodd" d="M14.994 1040.543a.5.5 0 0 0-.346.148l-.974.967-.313-.308a.5.5 0 1 0-.703.71l.664.657a.5.5 0 0 0 .703 0l1.327-1.315a.5.5 0 0 0-.358-.859zm8-3.998a.5.5 0 0 0-.344.148l-.976.965-.313-.308a.5.5 0 1 0-.703.71l.664.657a.5.5 0 0 0 .703 0l1.329-1.313a.5.5 0 0 0-.36-.86zm-12.002-4a.5.5 0 0 0-.344.148l-.974.965-.313-.308a.5.5 0 1 0-.703.71l.664.657a.5.5 0 0 0 .703 0l1.327-1.313a.5.5 0 0 0-.36-.86z" color="#000" font-family="sans-serif" font-weight="400" overflow="visible" style="line-height:normal;text-indent:0;text-align:start;text-decoration-line:none;text-decoration-style:solid;text-decoration-color:#000;text-transform:none;block-progression:tb;isolation:auto;mix-blend-mode:normal" transform="translate(8 -1012.362)"></path><path fill="#406b95" d="M13.505 20.5h1v1h-1zm8 12h1v1h-1zm4 0h1v1h-1zm4 0h1v1h-1zm4 0h1v1h-1z"></path></svg>